<svg t="1645963888425" class="icon" viewBox="0 0 1024 1024" version="1.1" xmlns="http://www.w3.org/2000/svg" p-id="11222" width="200" height="200"><path d="M869.16608 961.266136c-59.823478 6.647053-703.05369 16.361977-758.275361 5.113118 0-64.425284-8.6923-357.918242 194.298474-480.121757a467.338962 467.338962 0 0 1-194.298474-431.035825c33.235265 0 697.42926-9.203612 760.320608 0 7.669677 44.995436-10.226235 300.651323-210.149139 429.50189C829.283762 589.031164 874.79051 810.429162 874.79051 920.361194a320.592483 320.592483 0 0 1-5.62443 40.904942zM195.257161 102.262355c0 44.995436 4.601806 272.529176 185.094863 344.624136v79.253325c-85.900378 40.39363-174.868627 173.334692-185.094863 394.221378 141.12205-3.067871 591.587723-3.579182 591.587723 0 0-76.185454-38.859695-341.556265-200.434215-394.221378V444.841244c70.561025-23.520342 200.434216-143.678609 198.90028-342.578889H195.257161z" fill="#333333" p-id="11223"></path><path d="M871.722639 102.262355H107.822848V16.361977a10.226235 10.226235 0 0 1 10.226235-10.226236h4.601806L210.085203 51.131177h558.352457l51.131178-51.131177 89.990872 44.995436a10.226235 10.226235 0 0 1 4.601806 13.805418 5.113118 5.113118 0 0 1 0 2.556559zM874.79051 920.361194v5.624429a176.402562 176.402562 0 0 1-11.24886 66.470531 58.800854 58.800854 0 0 1-36.303135 22.497718 4.601806 4.601806 0 0 1-3.579183-2.556559 59.823478 59.823478 0 0 0-17.3846-19.941159 92.547431 92.547431 0 0 0-32.723954-14.828041H210.085203L122.650889 1022.623549a10.226235 10.226235 0 0 1-14.828041-5.62443 14.828041 14.828041 0 0 1 0-4.601806L111.913342 920.361194z" fill="#333333" p-id="11224"></path><path d="M555.220651 370.189725c-21.475095 14.31673-45.506748 35.280512-45.506748 112.999902a129.873191 129.873191 0 0 0 79.764636 139.588114 250.031458 250.031458 0 0 1 98.683173 170.778133 2488.554406 2488.554406 0 0 1-409.04942 0 241.339157 241.339157 0 0 1 123.73745-184.072239c43.972813-24.542965 55.221672-59.312166 55.221671-125.271385s-18.407224-97.149237-38.859694-108.398096a252.076705 252.076705 0 0 1-102.262355-94.081366c29.656083-15.339353 255.655887-31.190018 333.886588 0a236.22604 236.22604 0 0 1-95.615301 88.456937z" fill="#999999" p-id="11225"></path></svg>
