<svg t="1646147296069" class="icon" viewBox="0 0 1024 1024" version="1.1" xmlns="http://www.w3.org/2000/svg" p-id="6156" width="200" height="200"><path d="M121.263158 377.263158a121.263158 121.263158 0 1 1 0-242.526316 121.263158 121.263158 0 0 1 0 242.526316z m0-53.894737a67.368421 67.368421 0 1 0 0-134.736842 67.368421 67.368421 0 0 0 0 134.736842zM121.263158 835.368421a121.263158 121.263158 0 1 1 0-242.526316 121.263158 121.263158 0 0 1 0 242.526316z m0-53.894737a67.368421 67.368421 0 1 0 0-134.736842 67.368421 67.368421 0 0 0 0 134.736842z" fill="#bfbfbf" p-id="6157"></path><path d="M80.842105 808.421053h80.842106v215.578947H80.842105zM80.842105 350.315789h80.842106v269.473685H80.842105zM80.842105 0h80.842106v161.684211H80.842105z" fill="#bfbfbf" p-id="6158"></path><path d="M350.315789 80.842105m67.368422 0l538.947368 0q67.368421 0 67.368421 67.368421l0 0q0 67.368421-67.368421 67.368421l-538.947368 0q-67.368421 0-67.368422-67.368421l0 0q0-67.368421 67.368422-67.368421Z" fill="#bfbfbf" p-id="6159"></path><path d="M350.315789 619.789474m67.368422 0l538.947368 0q67.368421 0 67.368421 67.368421l0 0q0 67.368421-67.368421 67.368421l-538.947368 0q-67.368421 0-67.368422-67.368421l0 0q0-67.368421 67.368422-67.368421Z" fill="#bfbfbf" p-id="6160"></path><path d="M350.315789 269.473684m67.368422 0l350.315789 0q67.368421 0 67.368421 67.368421l0 0q0 67.368421-67.368421 67.368421l-350.315789 0q-67.368421 0-67.368422-67.368421l0 0q0-67.368421 67.368422-67.368421Z" fill="#bfbfbf" p-id="6161"></path><path d="M350.315789 808.421053m67.368422 0l350.315789 0q67.368421 0 67.368421 67.368421l0 0q0 67.368421-67.368421 67.368421l-350.315789 0q-67.368421 0-67.368422-67.368421l0 0q0-67.368421 67.368422-67.368421Z" fill="#bfbfbf" p-id="6162"></path></svg>
